<?xml version="1.0" standalone="no"?>
<!DOCTYPE svg PUBLIC "-//W3C//DTD SVG 20010904//EN"
 "http://www.w3.org/TR/2001/REC-SVG-20010904/DTD/svg10.dtd">
<svg version="1.0" xmlns="http://www.w3.org/2000/svg"
 width="333.000000pt" height="333.000000pt" viewBox="0 0 333.000000 333.000000"
 preserveAspectRatio="xMidYMid meet">
<metadata>
Created by potrace 1.14, written by Peter Selinger 2001-2017
</metadata>
<g transform="translate(0.000000,333.000000) scale(0.100000,-0.100000)"
fill="#000000" stroke="none">
<path d="M1569 2855 c-39 -14 -119 -54 -119 -59 0 -1 7 -18 16 -36 16 -31 18
-32 70 -28 30 3 54 1 54 -4 0 -15 38 -8 44 8 3 8 10 13 16 9 5 -3 20 1 34 10
16 11 26 13 31 5 10 -17 135 3 135 21 0 17 40 9 93 -17 53 -27 131 -100 156
-147 8 -16 24 -27 40 -29 18 -2 26 -9 25 -20 -1 -10 1 -16 5 -14 4 3 12 -7 18
-22 6 -15 14 -36 19 -47 4 -11 9 -74 11 -140 2 -66 4 -130 4 -142 1 -13 5 -23
10 -23 5 0 9 -5 9 -11 0 -5 -4 -7 -10 -4 -13 8 -12 -72 1 -100 7 -15 8 -12 3
13 -3 19 -1 39 6 47 17 21 25 248 10 332 -14 87 -60 163 -141 237 -131 120
-266 177 -417 175 -48 0 -103 -6 -123 -14z"/>
<path d="M1248 2603 c-21 -24 -51 -84 -45 -90 3 -2 11 8 19 24 8 15 22 40 32
56 21 30 17 36 -6 10z"/>
<path d="M1926 2173 c-4 -4 -27 -6 -51 -4 -51 3 -152 -16 -160 -30 -3 -5 -3
-35 1 -68 6 -58 7 -59 30 -51 16 7 24 6 24 -2 0 -6 8 -17 18 -24 14 -11 14
-13 2 -14 -13 0 -13 -1 0 -10 22 -14 63 -13 54 2 -5 7 -2 9 8 5 10 -3 32 8 57
29 37 32 46 34 42 12 -1 -11 5 -10 46 7 35 15 36 16 17 29 -10 7 -44 17 -74
21 -30 4 -64 11 -74 15 -18 6 -17 8 8 14 15 4 31 4 37 0 5 -3 15 -1 22 5 7 5
36 9 65 8 59 -3 80 17 34 33 -15 6 -35 15 -44 20 -20 12 -52 13 -62 3z m-57
-180 c1 -1 -12 -1 -30 -1 -19 1 -29 3 -22 5 7 2 9 12 6 21 -5 14 -3 14 18 -3
13 -11 26 -21 28 -22z"/>
<path d="M1275 2139 c-26 -21 -33 -57 -14 -76 6 -6 17 -22 23 -35 8 -17 21
-24 50 -26 21 -2 46 -10 54 -18 8 -9 23 -13 34 -11 10 3 21 -1 26 -8 4 -7 16
-14 27 -17 11 -2 20 -10 20 -19 0 -9 8 -24 18 -33 19 -20 22 -36 7 -36 -6 0
-10 -6 -8 -13 2 -6 -7 -26 -19 -42 -19 -28 -27 -57 -24 -95 1 -9 16 -24 34
-35 17 -10 36 -24 40 -32 11 -18 33 -17 41 2 3 10 19 15 45 15 22 0 43 5 47
11 4 6 20 8 40 5 27 -6 38 -2 65 22 30 27 32 32 23 63 -5 19 -17 35 -27 37
-15 3 -16 0 -7 -24 6 -15 7 -31 2 -36 -10 -10 -42 0 -42 13 0 17 -39 9 -58
-11 l-19 -21 -57 21 c-50 19 -56 24 -56 50 0 16 13 48 29 72 28 42 29 46 26
150 -2 59 -6 111 -9 116 -9 16 -66 24 -178 28 -95 2 -110 0 -133 -17z m148
-66 c-7 -2 -19 -2 -25 0 -7 3 -2 5 12 5 14 0 19 -2 13 -5z m-13 -75 c0 -6 -7
-5 -15 2 -8 7 -15 17 -15 22 0 6 7 5 15 -2 8 -7 15 -17 15 -22z m85 3 c-3 -6
-11 -11 -17 -11 -6 0 -6 6 2 15 14 17 26 13 15 -4z"/>
<path d="M2274 2087 c-3 -10 -3 -29 1 -45 l8 -27 9 34 c10 37 -5 70 -18 38z"/>
<path d="M1555 1600 c-3 -5 -1 -10 4 -10 6 0 11 5 11 10 0 6 -2 10 -4 10 -3 0
-8 -4 -11 -10z"/>
<path d="M1423 1560 c-43 -18 -16 -59 42 -65 22 -2 40 -4 40 -5 0 -1 11 -3 24
-6 52 -10 69 -44 21 -44 -22 0 -30 -5 -30 -17 0 -16 12 -18 93 -21 107 -3 136
8 89 32 -17 9 -48 20 -69 25 -36 8 -34 9 27 10 36 1 91 8 124 15 36 9 69 11
86 6 27 -8 40 -5 40 10 0 13 -54 30 -90 30 -83 -2 -197 8 -222 18 -15 6 -40
11 -55 10 -15 -1 -44 1 -63 5 -19 3 -45 2 -57 -3z"/>
<path d="M1300 1537 c0 -8 -6 -17 -14 -20 -8 -3 -13 -14 -11 -24 2 -10 4 -22
4 -26 1 -5 5 -6 10 -2 18 11 6 -40 -17 -72 -28 -39 -62 -51 -292 -98 -91 -18
-241 -54 -335 -79 -93 -25 -182 -46 -199 -46 -22 0 -42 -13 -81 -52 -57 -58
-101 -151 -134 -281 -10 -39 -36 -108 -58 -152 -52 -102 -71 -168 -83 -279 -7
-72 -17 -106 -50 -174 -36 -75 -40 -92 -40 -158 l0 -74 593 0 593 0 13 177 c7
98 19 234 27 303 7 69 14 134 14 144 0 11 3 16 7 13 14 -15 36 38 35 88 0 37
4 55 14 59 10 4 14 22 13 63 0 32 -1 85 0 118 0 33 -4 78 -9 100 -13 55 -13
312 0 320 6 4 10 -6 11 -22 1 -49 6 -62 53 -136 39 -62 192 -238 250 -286 44
-38 130 -128 147 -156 10 -16 19 -40 19 -53 0 -15 5 -22 13 -20 18 7 20 43 3
77 -20 39 -95 124 -114 132 -11 4 -7 8 14 12 51 10 309 216 292 233 -4 3 -15
-4 -25 -16 -10 -12 -37 -35 -61 -51 -49 -33 -93 -35 -154 -5 -21 10 -45 16
-53 12 -8 -3 -15 -2 -15 2 0 4 -14 13 -31 19 -21 8 -30 17 -27 30 3 15 14 18
58 19 93 2 136 14 197 55 28 18 44 24 47 16 3 -7 5 -3 3 8 -3 25 -40 32 -70
12 -56 -37 -226 -39 -295 -3 -17 9 -34 16 -38 15 -3 0 -31 24 -61 55 -31 31
-59 56 -63 56 -13 0 -57 74 -64 107 -8 35 -36 67 -36 40z m190 -417 c0 -5 -2
-10 -4 -10 -3 0 -8 5 -11 10 -3 6 -1 10 4 10 6 0 11 -4 11 -10z m318 -86 c5
-14 -105 -67 -136 -65 -60 4 -70 8 -99 42 l-31 34 132 -1 c72 -1 132 -5 134
-10z"/>
<path d="M2168 1352 c3 -72 -1 -102 -22 -172 -14 -47 -37 -137 -51 -200 -34
-146 -65 -253 -79 -262 -6 -4 -20 -56 -32 -115 -12 -59 -43 -210 -68 -335 -25
-125 -46 -236 -46 -248 0 -20 2 -20 725 -20 l725 0 -6 27 c-4 16 -15 53 -25
83 -11 30 -19 79 -19 110 0 30 -7 87 -15 125 -9 39 -20 135 -25 215 -5 80 -15
163 -21 185 -15 53 -46 95 -69 95 -10 0 -21 4 -25 9 -10 17 -274 155 -435 229
-172 78 -390 199 -433 240 -16 15 -36 45 -46 68 -30 67 -37 60 -33 -34z"/>
<path d="M2067 1335 c-10 -14 -22 -25 -27 -25 -5 0 -25 -10 -45 -21 -26 -16
-33 -25 -25 -34 5 -6 7 -15 3 -18 -16 -17 8 -5 32 16 54 44 85 78 85 92 0 20
-2 19 -23 -10z"/>
<path d="M1311 884 c0 -11 3 -14 6 -6 3 7 2 16 -1 19 -3 4 -6 -2 -5 -13z"/>
<path d="M1477 889 c-16 -9 -6 -23 85 -119 75 -79 106 -119 116 -150 7 -23 11
-44 9 -47 -2 -2 -17 13 -33 34 -16 21 -71 84 -122 141 -51 57 -90 108 -86 114
8 13 -23 -5 -56 -32 -17 -15 -21 -23 -12 -27 6 -2 12 -14 12 -24 0 -11 7 -34
16 -50 12 -23 14 -53 11 -127 -2 -53 -7 -108 -11 -122 -7 -22 -4 -21 26 12 18
20 52 46 74 57 38 18 62 47 50 59 -6 5 -57 -19 -96 -45 -24 -16 -24 -16 3 13
27 30 27 31 13 72 -8 23 -12 42 -9 42 4 0 -2 7 -13 16 -19 15 -19 16 0 9 19
-6 19 -5 2 14 -14 16 -16 23 -6 38 11 17 11 17 6 0 -3 -10 -2 -15 4 -12 5 3
42 -29 82 -71 40 -43 81 -85 91 -93 9 -9 17 -21 17 -27 0 -7 -37 -45 -82 -86
-44 -40 -117 -107 -160 -148 -73 -69 -79 -73 -73 -45 6 27 5 28 -7 10 -13 -21
-39 -115 -31 -115 5 0 178 161 320 296 35 34 66 57 69 53 16 -26 -73 -128
-216 -246 -41 -34 -103 -91 -137 -125 -52 -52 -64 -71 -72 -110 -4 -27 -5 -45
0 -42 5 3 9 11 9 18 0 17 156 175 265 268 135 114 159 153 170 271 7 78 7 79
-29 130 -19 29 -68 87 -108 129 -62 66 -76 76 -91 67z m-60 -131 c-3 -8 -6 -5
-6 6 -1 11 2 17 5 13 3 -3 4 -12 1 -19z"/>
<path d="M1805 844 c14 -20 25 -46 25 -58 0 -20 1 -20 20 4 l20 25 -37 33
c-48 42 -58 41 -28 -4z"/>
<path d="M1884 774 c1 -27 3 -31 12 -19 6 8 17 15 23 15 16 0 5 17 -18 29 -15
9 -17 5 -17 -25z"/>
<path d="M1366 424 c-4 -14 -5 -28 -3 -31 3 -2 8 8 11 23 4 14 5 28 3 31 -3 2
-8 -8 -11 -23z"/>
<path d="M1701 275 c-25 -47 -102 -127 -210 -217 -53 -44 -60 -54 -43 -56 30
-5 38 1 149 104 104 97 144 154 134 192 -5 20 -8 18 -30 -23z"/>
<path d="M1647 94 c-76 -81 -85 -94 -65 -94 16 0 46 22 92 69 53 54 67 73 64
93 -3 23 -11 17 -91 -68z"/>
</g>
</svg>
